<svg width="669" height="578" viewBox="0 0 669 578" fill="none" xmlns="http://www.w3.org/2000/svg">
<path fill-rule="evenodd" clip-rule="evenodd" d="M442.959 111.187C427.521 114.039 410.493 117.184 387.15 120.651C377.805 122.038 368.135 123.168 358.402 124.304C319.785 128.813 280.172 133.438 255.915 154.803C238.013 170.569 236.939 191.084 237.33 212.273C221.222 213.697 205.216 215.979 189.698 219.014C96.0953 237.315 -1.93404 277.758 3.19278 340.691C7.85356 397.903 115.617 414.493 202.766 427.909C204.104 428.115 205.438 428.321 206.766 428.525C252.028 435.5 297.976 432.582 335.376 418.217C337.453 418.604 339.513 419.017 341.549 419.461C374.543 426.657 405.963 432.535 439.801 437.14C460.357 439.937 483.948 447.447 507.754 455.026C557.46 470.85 608.1 486.971 634 461.106C652.806 442.326 634.459 426.151 612.727 406.991C588.252 385.413 559.483 360.048 574.658 322.913C603.308 252.805 627.479 186.62 597.5 154.803C590.103 146.952 584.347 139.369 579.115 132.476C563.14 111.43 552.04 96.8063 514 100.6C484.178 103.574 465.223 107.075 442.959 111.187Z" fill="#8EAEFF"/>
<path fill-rule="evenodd" clip-rule="evenodd" d="M450.635 50.9458C568.046 79.6965 556.716 208.206 535.519 312.212C517.086 402.663 463.468 498.305 353.468 527.73C241.686 557.631 137.125 508.399 88.2202 431.864C46.2787 366.227 93.0435 286.019 156.44 219.386C237.577 134.107 336.747 23.0577 450.635 50.9458Z" fill="#4151A5"/>
<circle cx="625" cy="347.335" r="18.5" transform="rotate(105 625 347.335)" fill="#4151A5"/>
<circle cx="613.534" cy="293.534" r="13.5" transform="rotate(105 613.534 293.534)" fill="#4151A5"/>
<circle cx="105.5" cy="150.5" r="18.5" fill="#4151A5"/>
<circle cx="56.5" cy="175.5" r="13.5" fill="#4151A5"/>
<circle cx="60" cy="142" r="10" fill="#4151A5"/>
</svg>
