<svg width="24" height="36" viewBox="0 0 24 36" fill="none" xmlns="http://www.w3.org/2000/svg">
<g clip-path="url(#clip0_21_26)">
<path d="M5.98404 36C9.28723 36 11.9681 33.312 11.9681 30V24H5.98404C2.68085 24 0 26.688 0 30C0 33.312 2.68085 36 5.98404 36Z" fill="#0ACF83"/>
<path d="M0 18C0 14.688 2.68085 12 5.98404 12H11.9681V24H5.98404C2.68085 24 0 21.312 0 18Z" fill="#A259FF"/>
<path d="M0 6C0 2.688 2.68085 0 5.98404 0H11.9681V12H5.98404C2.68085 12 0 9.312 0 6Z" fill="#F24E1E"/>
<path d="M11.9681 0H17.9521C21.2553 0 23.9362 2.688 23.9362 6C23.9362 9.312 21.2553 12 17.9521 12H11.9681V0Z" fill="#FF7262"/>
<path d="M23.9362 18C23.9362 21.312 21.2553 24 17.9521 24C14.6489 24 11.9681 21.312 11.9681 18C11.9681 14.688 14.6489 12 17.9521 12C21.2553 12 23.9362 14.688 23.9362 18Z" fill="#1ABCFE"/>
</g>
<defs>
<clipPath id="clip0_21_26">
<rect width="23.9362" height="36" fill="white"/>
</clipPath>
</defs>
</svg>
