<svg width="38" height="36" viewBox="0 0 38 36" fill="none" xmlns="http://www.w3.org/2000/svg">
<g clip-path="url(#clip0_21_32)">
<path d="M31.2314 0H6.67285C3.30185 0 0.569122 2.74002 0.569122 6.12V29.8224C0.569122 33.2024 3.30185 35.9424 6.67285 35.9424H31.2314C34.6023 35.9424 37.3351 33.2024 37.3351 29.8224V6.12C37.3351 2.74002 34.6023 0 31.2314 0Z" fill="#330000"/>
<path d="M18.3854 21.5698H12.6881L11.5288 25.1803C11.5131 25.2462 11.4749 25.3045 11.4208 25.3451C11.3668 25.3857 11.3003 25.4062 11.2328 25.403H8.34715C8.18271 25.403 8.12512 25.3122 8.17452 25.1308L13.1073 10.8866C13.1566 10.7383 13.206 10.5694 13.2553 10.3797C13.3199 10.0497 13.3529 9.71445 13.3539 9.37821C13.3506 9.35469 13.3527 9.33071 13.3602 9.30817C13.3677 9.28562 13.3803 9.26514 13.3971 9.24833C13.4138 9.23152 13.4342 9.21886 13.4567 9.21133C13.4792 9.20381 13.5031 9.20163 13.5266 9.20498H17.4482C17.5631 9.20498 17.6288 9.24631 17.6455 9.32882L23.2441 25.1556C23.2935 25.3206 23.2441 25.4031 23.0962 25.403H19.8898C19.8347 25.4091 19.7793 25.3949 19.7339 25.363C19.6886 25.3312 19.6563 25.2838 19.6432 25.2299L18.3854 21.5698ZM13.576 18.454H17.4729L17.4173 18.2701L17.3281 17.9789L17.2645 17.7744L17.1629 17.4524L16.9471 16.7746L16.7572 16.1737L16.2642 14.6084C16.1415 14.2193 16.0237 13.8287 15.9109 13.4366L15.8207 13.1183L15.7153 12.742L15.5544 12.1588L15.5243 12.049H15.4997C15.3763 12.6426 15.226 13.2302 15.0493 13.8101L14.6834 14.9903L14.482 15.6424L14.2788 16.3024C14.2421 16.4217 14.2056 16.5396 14.169 16.6561L14.0598 17.0014L13.9512 17.3387L13.8432 17.6676L13.7358 17.9883C13.7002 18.0938 13.6646 18.1979 13.6291 18.3007L13.576 18.454ZM26.5734 11.8264C26.3219 11.8365 26.071 11.7933 25.8373 11.6995C25.6035 11.6058 25.3922 11.4636 25.217 11.2823C25.0423 11.0932 24.9065 10.8713 24.8176 10.6294C24.7287 10.3874 24.6884 10.1303 24.6989 9.87271C24.69 9.6177 24.7348 9.36367 24.8304 9.1272C24.9261 8.89073 25.0703 8.67714 25.2539 8.50039C25.6079 8.15963 26.0794 7.96893 26.5701 7.96802L26.6227 7.96859C27.2147 7.96859 27.6793 8.14571 28.0164 8.50024C28.1865 8.68445 28.3187 8.90048 28.4055 9.13599C28.4922 9.3715 28.5318 9.62185 28.5219 9.87271C28.5322 10.1313 28.4906 10.3894 28.3995 10.6316C28.3084 10.8737 28.1697 11.0951 27.9917 11.2825C27.8119 11.4602 27.5984 11.6 27.3639 11.6937C27.1294 11.7874 26.8786 11.8332 26.6261 11.8282L26.5734 11.8264ZM24.8716 25.1556V13.3349C24.8716 13.1866 24.9371 13.1123 25.0689 13.1123H28.1027C28.2341 13.1123 28.2999 13.1864 28.3 13.3349V25.1556C28.3 25.3206 28.2342 25.4031 28.1027 25.403H25.0936C24.9534 25.403 24.8796 25.3289 24.8723 25.1809L24.8716 25.1556Z" fill="#FF9A00"/>
</g>
<defs>
<clipPath id="clip0_21_32">
<rect width="36.766" height="36" fill="white" transform="translate(0.569122)"/>
</clipPath>
</defs>
</svg>
