<svg width="203" height="204" viewBox="0 0 203 204" fill="none" xmlns="http://www.w3.org/2000/svg">
<path d="M13.3229 51.2081L51.2309 13.3C44.5009 17.1457 38.2515 21.7469 32.5974 26.9661L26.989 32.5745C21.7698 38.2515 17.1686 44.478 13.3229 51.2081Z" fill="#F3FF67" fill-opacity="0.2"/>
<path d="M2.01416 81.3327L81.3555 1.99152C79.1579 2.42645 77.0061 2.95291 74.8543 3.52519L3.54787 74.8316C2.9527 76.9834 2.4491 79.1581 2.01416 81.3327Z" fill="#F3FF67" fill-opacity="0.2"/>
<path d="M0 101.5C0 101.706 0 101.935 0 102.141L102.141 0C101.935 0 101.706 0 101.5 0C100.035 0 98.5471 0.0458022 97.1049 0.0915848L0.0915499 97.105C0.0457673 98.57 0 100.035 0 101.5Z" fill="#F3FF67" fill-opacity="0.2"/>
<path d="M1.57924 119.401L119.401 1.57951C117.982 1.3277 116.539 1.09884 115.12 0.91571L0.915405 115.12C1.09854 116.54 1.32743 117.982 1.57924 119.401Z" fill="#F3FF67" fill-opacity="0.2"/>
<path d="M5.42548 134.349L134.349 5.42526C133.113 4.99032 131.854 4.60112 130.595 4.23486L4.23512 130.595C4.60138 131.854 5.01344 133.113 5.42548 134.349Z" fill="#F3FF67" fill-opacity="0.2"/>
<path d="M11.0333 147.557L147.58 11.0106C146.481 10.4384 145.36 9.91188 144.238 9.38538L9.40802 144.215C9.93452 145.36 10.461 146.459 11.0333 147.557Z" fill="#F3FF67" fill-opacity="0.2"/>
<path d="M18.0842 159.324L159.346 18.0613C158.362 17.3746 157.378 16.7107 156.371 16.0698L16.0926 156.348C16.7336 157.378 17.3974 158.362 18.0842 159.324Z" fill="#F3FF67" fill-opacity="0.2"/>
<path d="M26.4167 169.808L169.808 26.4167C168.938 25.6384 168.068 24.86 167.175 24.1046L24.1046 167.175C24.8601 168.068 25.6155 168.938 26.4167 169.808Z" fill="#F3FF67" fill-opacity="0.2"/>
<path d="M35.9852 179.033L179.033 35.9853C178.278 35.0925 177.499 34.1998 176.721 33.3299L33.3299 176.721C34.2226 177.522 35.0925 178.278 35.9852 179.033Z" fill="#F3FF67" fill-opacity="0.2"/>
<path d="M46.8125 187.045L187.045 46.8128C186.404 45.8055 185.74 44.8212 185.053 43.8369L43.8366 185.053C44.821 185.717 45.8053 186.381 46.8125 187.045Z" fill="#F3FF67" fill-opacity="0.2"/>
<path d="M58.9681 193.683L193.683 58.9681C193.157 57.8464 192.63 56.7248 192.058 55.626L55.6031 192.081C56.7248 192.631 57.8464 193.18 58.9681 193.683Z" fill="#F3FF67" fill-opacity="0.2"/>
<path d="M72.6343 198.834L198.857 72.6114C198.491 71.3524 198.079 70.0934 197.667 68.8572L68.8802 197.644C70.0934 198.079 71.3524 198.468 72.6343 198.834Z" fill="#F3FF67" fill-opacity="0.2"/>
<path d="M88.1318 202.13L202.131 88.1314C201.947 86.6893 201.718 85.2472 201.467 83.8279L83.8282 201.466C85.2704 201.741 86.6897 201.947 88.1318 202.13Z" fill="#F3FF67" fill-opacity="0.2"/>
<path d="M101.5 203.023C103.079 203.023 104.636 202.977 106.17 202.908L202.886 106.193C202.954 104.636 203 103.08 203 101.523C203 101.386 203 101.271 203 101.134L101.111 203.023C101.248 203.023 101.385 203.023 101.5 203.023Z" fill="#F3FF67" fill-opacity="0.2"/>
<path d="M128.535 199.384L199.383 128.535C199.979 126.383 200.505 124.208 200.963 122.011L122.011 200.963C124.208 200.505 126.383 199.956 128.535 199.384Z" fill="#F3FF67" fill-opacity="0.2"/>
<path d="M189.334 152.433L152.411 189.357C167.702 180.452 180.452 167.702 189.334 152.433Z" fill="#F3FF67" fill-opacity="0.2"/>
</svg>
