<svg width="21" height="20" viewBox="0 0 21 20" fill="none" xmlns="http://www.w3.org/2000/svg">
<path d="M19.8667 0H1.46666C1.02416 0 0.666656 0.3575 0.666656 0.8V19.2C0.666656 19.6425 1.02416 20 1.46666 20H19.8667C20.3092 20 20.6667 19.6425 20.6667 19.2V0.8C20.6667 0.3575 20.3092 0 19.8667 0ZM12.8292 5.9725H16.2892V6.815H12.8292V5.9725ZM10.6667 12.92C10.5048 13.2272 10.2737 13.4925 9.99166 13.695C9.69666 13.9 9.36916 14.05 9.02166 14.1375C8.65809 14.2349 8.28304 14.2829 7.90666 14.28H3.76666V5.7525H7.79166C8.19916 5.7525 8.56916 5.79 8.90666 5.86C9.24166 5.93 9.52666 6.05 9.76666 6.2125C10.0042 6.375 10.1917 6.5925 10.3242 6.8625C10.4542 7.13 10.5217 7.465 10.5217 7.8625C10.5217 8.2925 10.4242 8.6475 10.2292 8.935C10.0317 9.2225 9.74666 9.455 9.35916 9.6375C9.88666 9.7875 10.2742 10.055 10.5292 10.43C10.7892 10.81 10.9167 11.265 10.9167 11.8C10.9167 12.235 10.8342 12.6075 10.6667 12.92ZM17.6367 11.6H13.1767C13.1767 12.085 13.3442 12.55 13.5967 12.8C13.8517 13.0475 14.2167 13.1725 14.6942 13.1725C15.0392 13.1725 15.3317 13.085 15.5817 12.9125C15.8292 12.74 15.9792 12.5575 16.0342 12.3675H17.5292C17.2892 13.11 16.9242 13.64 16.4292 13.96C15.9392 14.28 15.3392 14.44 14.6417 14.44C14.1542 14.44 13.7167 14.36 13.3242 14.2075C12.9467 14.06 12.6067 13.835 12.3267 13.545C12.0506 13.2472 11.8372 12.8969 11.6992 12.515C11.5467 12.0925 11.4717 11.6475 11.4767 11.2C11.4767 10.7375 11.5542 10.3075 11.7042 9.9075C11.9917 9.13 12.5892 8.5075 13.3517 8.185C13.7592 8.015 14.1967 7.93 14.6392 7.935C15.1642 7.935 15.6192 8.035 16.0142 8.24C16.3944 8.43576 16.7246 8.71631 16.9792 9.06C17.2317 9.4025 17.4092 9.7925 17.5217 10.2325C17.6292 10.665 17.6667 11.12 17.6367 11.6ZM14.5867 9.21C14.3167 9.21 14.0892 9.2575 13.9142 9.35C13.7392 9.4425 13.5942 9.5575 13.4842 9.69C13.3794 9.81793 13.302 9.96598 13.2567 10.125C13.2167 10.2575 13.1892 10.3925 13.1792 10.53H15.9417C15.9017 10.0975 15.7517 9.7775 15.5517 9.5525C15.3417 9.33 15.0042 9.21 14.5867 9.21ZM8.37416 8.9575C8.59166 8.8 8.69666 8.54 8.69666 8.1825C8.70416 8.0125 8.66916 7.845 8.59416 7.6925C8.52666 7.57 8.42666 7.4675 8.30416 7.395C8.17714 7.31797 8.03607 7.26698 7.88916 7.245C7.72916 7.215 7.56666 7.2 7.40666 7.2025H5.64916V9.195H7.55166C7.87916 9.1975 8.15666 9.1175 8.37416 8.9575ZM8.66916 10.7575C8.42416 10.57 8.09666 10.4775 7.68916 10.4775H5.64416V12.8275H7.64916C7.83666 12.8275 8.00916 12.81 8.17666 12.775C8.34416 12.74 8.49416 12.68 8.62166 12.595C8.74916 12.5125 8.85166 12.4 8.92916 12.255C9.00416 12.11 9.04166 11.925 9.04166 11.7025C9.04166 11.26 8.91666 10.9475 8.66916 10.7575Z" fill="white"/>
</svg>
