<svg width="38" height="36" viewBox="0 0 38 36" fill="none" xmlns="http://www.w3.org/2000/svg">
<g clip-path="url(#clip0_21_35)">
<path d="M31.6303 0H7.07174C3.70075 0 0.968018 2.74002 0.968018 6.12V29.8224C0.968018 33.2024 3.70075 35.9424 7.07174 35.9424H31.6303C35.0012 35.9424 37.734 33.2024 37.734 29.8224V6.12C37.734 2.74002 35.0012 0 31.6303 0Z" fill="#001E36"/>
<path d="M9.24668 25.205V9.40276C9.24668 9.28756 9.29608 9.22968 9.39475 9.22968L9.55086 9.22925L9.8177 9.22637L10.1885 9.21902L11.4308 9.19267L12.7629 9.1679C13.2313 9.15984 13.6958 9.15552 14.1562 9.15552C15.4057 9.15552 16.458 9.31219 17.3132 9.62539C18.0847 9.88703 18.7882 10.3179 19.3727 10.8865C19.8681 11.3795 20.251 11.9744 20.4949 12.6301C20.7256 13.2682 20.8425 13.942 20.8403 14.6207C20.8403 15.9399 20.536 17.028 19.9276 17.8851C19.3326 18.7212 18.5026 19.3607 17.5436 19.7219L17.4613 19.7522C16.4598 20.1267 15.3508 20.2621 14.1345 20.2706L13.9455 20.2712L13.6651 20.2697L13.5236 20.2677L13.3659 20.264L13.2708 20.2602L13.2131 20.2572L13.0711 20.252L12.8974 20.2484L12.636 20.2465L12.5779 20.2464V25.1803C12.5822 25.2105 12.5794 25.2414 12.5698 25.2703C12.5602 25.2993 12.5439 25.3257 12.5224 25.3473C12.5009 25.3689 12.4746 25.3851 12.4457 25.3948C12.4168 25.4045 12.386 25.4072 12.3558 25.4029H9.41945C9.30412 25.4029 9.24668 25.3372 9.24668 25.205ZM12.578 12.1972V17.3513C12.7749 17.3672 12.9722 17.3755 13.1697 17.376H13.9837C14.545 17.3742 15.1029 17.2904 15.6401 17.1274L15.7472 17.0938C16.2359 16.9483 16.6725 16.665 17.0052 16.2776C17.3142 15.9121 17.4744 15.4086 17.4854 14.7668L17.4861 14.6949C17.4991 14.2165 17.375 13.7445 17.1284 13.3348C16.8692 12.9386 16.4946 12.6321 16.0556 12.4569C15.4822 12.2334 14.8698 12.1283 14.255 12.1478L13.9422 12.1487L13.7449 12.1504L13.5566 12.1529L13.2909 12.1581L13.097 12.1635L12.9964 12.1673L12.8618 12.1736L12.7472 12.1807L12.6819 12.1859L12.6254 12.1913L12.6006 12.1942L12.578 12.1972ZM30.3765 16.4141C29.9462 16.1924 29.4899 16.0259 29.0181 15.9185L28.909 15.8949C28.39 15.7755 27.8602 15.7097 27.3279 15.6986L27.1949 15.697C26.8829 15.6885 26.5712 15.726 26.27 15.8083C26.0783 15.8511 25.9078 15.9606 25.7889 16.1173C25.7085 16.2428 25.6658 16.3887 25.6657 16.5378C25.6702 16.6824 25.7222 16.8215 25.8136 16.9334C25.9445 17.0869 26.1019 17.2155 26.2782 17.3131L26.3316 17.3415C26.6833 17.5313 27.0456 17.7006 27.4168 17.8484C28.2446 18.1262 29.0355 18.5041 29.7721 18.9736C30.274 19.2912 30.6894 19.7289 30.9808 20.2473C31.2258 20.7381 31.3485 21.2811 31.3384 21.8298C31.3532 22.5545 31.1466 23.2665 30.7464 23.8702C30.318 24.4829 29.723 24.9592 29.0322 25.2425C28.3088 25.5613 27.4204 25.7259 26.3671 25.7367L26.2577 25.7373C25.6047 25.7439 24.9527 25.6866 24.3108 25.5662L24.1735 25.5394C23.6331 25.44 23.107 25.2739 22.6074 25.0448C22.5572 25.0188 22.5147 24.9799 22.4844 24.9321C22.4541 24.8843 22.4369 24.8292 22.4347 24.7726V22.0772C22.4318 22.051 22.436 22.0246 22.4468 22.0006C22.4577 21.9766 22.4749 21.9561 22.4965 21.9411C22.5177 21.9291 22.542 21.9239 22.5662 21.9261C22.5904 21.9283 22.6134 21.9379 22.6321 21.9535C23.2221 22.3024 23.8628 22.5569 24.5311 22.7078C25.1202 22.8559 25.7244 22.9347 26.3316 22.9428C26.907 22.9428 27.3304 22.8685 27.6018 22.7202C27.7244 22.6639 27.828 22.5732 27.9003 22.4591C27.9725 22.345 28.0102 22.2124 28.0088 22.0772C28.0088 21.8632 27.8854 21.657 27.6388 21.459C27.5354 21.3761 27.3871 21.2858 27.1941 21.1883L27.1017 21.1428L27.0032 21.0963L26.9515 21.0727L26.8432 21.0246C26.8244 21.0164 26.8056 21.0082 26.7868 21.0001L26.669 20.9506L26.6077 20.9254L26.4804 20.8742L26.4144 20.8483L26.2775 20.7955L26.1343 20.7418C25.3599 20.4715 24.6256 20.0971 23.9515 19.6289C23.4694 19.2927 23.0724 18.8481 22.7923 18.3306C22.5498 17.8433 22.4272 17.3049 22.4347 16.7603C22.4334 16.106 22.6126 15.4641 22.9526 14.9056C23.3404 14.2907 23.897 13.8011 24.5558 13.4961C25.2792 13.1337 26.1834 12.9522 27.2687 12.9519C27.9044 12.9468 28.5395 12.9923 29.1679 13.088C29.623 13.1459 30.0679 13.2665 30.4901 13.4466C30.558 13.4662 30.6127 13.5164 30.638 13.5827C30.6548 13.643 30.663 13.7053 30.6627 13.7681V16.2658C30.6663 16.3248 30.638 16.3814 30.5887 16.4141C30.5558 16.4306 30.5194 16.4391 30.4826 16.4391C30.4458 16.4391 30.4095 16.4306 30.3765 16.4141Z" fill="#31A8FF"/>
</g>
<defs>
<clipPath id="clip0_21_35">
<rect width="36.766" height="36" fill="white" transform="translate(0.968018)"/>
</clipPath>
</defs>
</svg>
