<svg width="36" height="36" viewBox="0 0 36 36" fill="none" xmlns="http://www.w3.org/2000/svg">
<g clip-path="url(#clip0_26_41)">
<path d="M27.5624 0H8.43738C3.77748 0 -0.00012207 3.7776 -0.00012207 8.4375V27.5625C-0.00012207 32.2224 3.77748 36 8.43738 36H27.5624C32.2223 36 35.9999 32.2224 35.9999 27.5625V8.4375C35.9999 3.7776 32.2223 0 27.5624 0Z" fill="#0277BD"/>
<path d="M7.55889 14.4353L7.96136 18.9271H18.0134V14.4353H7.55889ZM18.0132 5.34375H6.74988L7.15825 9.83559H18.0132V5.34375ZM18.0132 30.7745V26.1011L17.9936 26.1063L12.991 24.7556L12.6712 21.1731H8.16203L8.79133 28.226L17.9926 30.7803L18.0132 30.7745Z" fill="#EBEBEB"/>
<path d="M23.5289 18.9271L23.0075 24.7527L17.9977 26.1049V30.778L27.2063 28.226L27.2738 27.467L28.3293 15.6416L28.4389 14.4353L29.2499 5.34375H17.9977V9.83559H24.3271L23.9185 14.4353H17.9977V18.9271H23.5289Z" fill="white"/>
</g>
<defs>
<clipPath id="clip0_26_41">
<rect width="36" height="36" fill="white"/>
</clipPath>
</defs>
</svg>
