<svg width="37" height="36" viewBox="0 0 37 36" fill="none" xmlns="http://www.w3.org/2000/svg">
<g clip-path="url(#clip0_26_36)">
<path d="M27.9294 0H8.80444C4.14454 0 0.366943 3.7776 0.366943 8.4375V27.5625C0.366943 32.2224 4.14454 36 8.80444 36H27.9294C32.5893 36 36.3669 32.2224 36.3669 27.5625V8.4375C36.3669 3.7776 32.5893 0 27.9294 0Z" fill="#E14E1D"/>
<path d="M7.11694 5.34375L8.32772 18.9271H23.8963L23.3739 24.7532L18.3612 26.1086L13.3579 24.7552L13.0233 21.0143H8.51476L9.15952 28.2257L18.3602 30.7811L27.5725 28.2257L28.8076 14.4359H12.4359L12.0249 9.83602H29.2146L29.6169 5.34375H7.11694Z" fill="white"/>
<path d="M18.3669 5.34375H7.11694L8.32772 18.9271H18.3669V14.4359H12.4359L12.0249 9.83602H18.3669V5.34375ZM18.3669 26.1066L18.3612 26.1086L13.3579 24.7552L13.0233 21.0143H8.51476L9.15952 28.2257L18.3602 30.7811L18.3671 30.7792V26.1066H18.3669Z" fill="#EBEBEB"/>
</g>
<defs>
<clipPath id="clip0_26_36">
<rect width="36" height="36" fill="white" transform="translate(0.366943)"/>
</clipPath>
</defs>
</svg>
