<svg width="20" height="20" viewBox="0 0 20 20" fill="none" xmlns="http://www.w3.org/2000/svg">
<g clip-path="url(#clip0_23_458)">
<path d="M9.9802 1.80193C12.6456 1.80193 12.9584 1.81381 14.0119 1.86133C14.9861 1.9049 15.5129 2.06727 15.8654 2.20589C16.3327 2.38806 16.6654 2.60193 17.0139 2.95044C17.3624 3.29896 17.5802 3.63163 17.7584 4.09896C17.8931 4.45143 18.0594 4.97816 18.103 5.95242C18.1505 7.00589 18.1624 7.31876 18.1624 9.9841C18.1624 12.6495 18.1505 12.9623 18.103 14.0158C18.0594 14.99 17.897 15.5168 17.7584 15.8693C17.5762 16.3366 17.3624 16.6693 17.0139 17.0178C16.6654 17.3663 16.3327 17.5841 15.8654 17.7623C15.5129 17.897 14.9861 18.0633 14.0119 18.1069C12.9584 18.1544 12.6456 18.1663 9.9802 18.1663C7.31486 18.1663 7.00199 18.1544 5.94852 18.1069C4.97426 18.0633 4.44753 17.9009 4.09506 17.7623C3.62773 17.5801 3.29506 17.3663 2.94654 17.0178C2.59803 16.6693 2.3802 16.3366 2.20199 15.8693C2.06733 15.5168 1.901 14.99 1.85743 14.0158C1.80991 12.9623 1.79803 12.6495 1.79803 9.9841C1.79803 7.31876 1.80991 7.00589 1.85743 5.95242C1.901 4.97816 2.06337 4.45143 2.20199 4.09896C2.38417 3.63163 2.59803 3.29896 2.94654 2.95044C3.29506 2.60193 3.62773 2.3841 4.09506 2.20589C4.44753 2.07123 4.97426 1.9049 5.94852 1.86133C7.00199 1.80985 7.31486 1.80193 9.9802 1.80193ZM9.9802 0.00390625C7.27129 0.00390625 6.9307 0.0157874 5.86535 0.0633122C4.80397 0.110837 4.07921 0.281134 3.44555 0.526679C2.78813 0.780144 2.23367 1.1247 1.67921 1.67915C1.12476 2.23361 0.784165 2.79203 0.52674 3.44549C0.281195 4.07915 0.110898 4.80391 0.0633732 5.86925C0.0158485 6.93064 0.00396729 7.27123 0.00396729 9.98014C0.00396729 12.6891 0.0158485 13.0296 0.0633732 14.095C0.110898 15.1564 0.281195 15.8811 0.52674 16.5188C0.780205 17.1762 1.12476 17.7306 1.67921 18.2851C2.23367 18.8396 2.79209 19.1801 3.44555 19.4376C4.07921 19.6831 4.80397 19.8534 5.86931 19.9009C6.93466 19.9485 7.27129 19.9603 9.98417 19.9603C12.697 19.9603 13.0337 19.9485 14.099 19.9009C15.1604 19.8534 15.8852 19.6831 16.5228 19.4376C17.1802 19.1841 17.7347 18.8396 18.2891 18.2851C18.8436 17.7306 19.1842 17.1722 19.4416 16.5188C19.6871 15.8851 19.8574 15.1603 19.905 14.095C19.9525 13.0296 19.9644 12.693 19.9644 9.98014C19.9644 7.26727 19.9525 6.93064 19.905 5.86529C19.8574 4.80391 19.6871 4.07915 19.4416 3.44153C19.1881 2.7841 18.8436 2.22965 18.2891 1.67519C17.7347 1.12074 17.1762 0.780144 16.5228 0.522718C15.8891 0.277174 15.1644 0.106877 14.099 0.0593518C13.0297 0.0157874 12.6891 0.00390625 9.9802 0.00390625Z" fill="white"/>
<path d="M9.98019 4.85547C7.15247 4.85547 4.85544 7.14854 4.85544 9.98022C4.85544 12.8119 7.15247 15.105 9.98019 15.105C12.8079 15.105 15.1049 12.8079 15.1049 9.98022C15.1049 7.1525 12.8079 4.85547 9.98019 4.85547ZM9.98019 13.307C8.14257 13.307 6.65346 11.8178 6.65346 9.98022C6.65346 8.1426 8.14257 6.65349 9.98019 6.65349C11.8178 6.65349 13.3069 8.1426 13.3069 9.98022C13.3069 11.8178 11.8178 13.307 9.98019 13.307Z" fill="white"/>
<path d="M15.3069 5.84935C15.9675 5.84935 16.503 5.31387 16.503 4.65331C16.503 3.99276 15.9675 3.45728 15.3069 3.45728C14.6464 3.45728 14.1109 3.99276 14.1109 4.65331C14.1109 5.31387 14.6464 5.84935 15.3069 5.84935Z" fill="white"/>
</g>
<defs>
<clipPath id="clip0_23_458">
<rect width="20" height="20" fill="white"/>
</clipPath>
</defs>
</svg>
