<svg width="21" height="20" viewBox="0 0 21 20" fill="none" xmlns="http://www.w3.org/2000/svg">
<path d="M18.8545 -0.00010431H1.8122C1.62063 -0.00274893 1.43041 0.0321432 1.25241 0.102579C1.07441 0.173016 0.912104 0.277616 0.774774 0.410408C0.637445 0.543199 0.527776 0.70158 0.452032 0.876505C0.376288 1.05143 0.335952 1.23947 0.333328 1.4299V18.5699C0.335952 18.7603 0.376288 18.9484 0.452032 19.1233C0.527776 19.2982 0.637445 19.4566 0.774774 19.5894C0.912104 19.7222 1.07441 19.8268 1.25241 19.8972C1.43041 19.9676 1.62063 20.0025 1.8122 19.9999H18.8545C19.046 20.0025 19.2362 19.9676 19.4142 19.8972C19.5923 19.8268 19.7546 19.7222 19.8919 19.5894C20.0292 19.4566 20.1389 19.2982 20.2146 19.1233C20.2904 18.9484 20.3307 18.7603 20.3333 18.5699V1.4299C20.3307 1.23947 20.2904 1.05143 20.2146 0.876505C20.1389 0.70158 20.0292 0.543199 19.8919 0.410408C19.7546 0.277616 19.5923 0.173016 19.4142 0.102579C19.2362 0.0321432 19.046 -0.00274893 18.8545 -0.00010431ZM6.39973 16.7399H3.38162V7.7399H6.39973V16.7399ZM4.89067 6.4799C4.47444 6.4799 4.07525 6.31554 3.78093 6.02298C3.4866 5.73043 3.32126 5.33363 3.32126 4.9199C3.32126 4.50616 3.4866 4.10937 3.78093 3.81681C4.07525 3.52425 4.47444 3.3599 4.89067 3.3599C5.11169 3.33498 5.33552 3.35675 5.54749 3.42378C5.75946 3.49081 5.9548 3.60159 6.12071 3.74886C6.28662 3.89613 6.41937 4.07657 6.51026 4.27838C6.60115 4.48018 6.64813 4.69879 6.64813 4.9199C6.64813 5.141 6.60115 5.35961 6.51026 5.56141C6.41937 5.76322 6.28662 5.94366 6.12071 6.09093C5.9548 6.23821 5.75946 6.34898 5.54749 6.41601C5.33552 6.48304 5.11169 6.50481 4.89067 6.4799ZM17.285 16.7399H14.2669V11.9099C14.2669 10.6999 13.8343 9.9099 12.7378 9.9099C12.3984 9.91237 12.0679 10.0182 11.7909 10.2131C11.5139 10.408 11.3036 10.6826 11.1885 10.9999C11.1097 11.2349 11.0756 11.4825 11.0879 11.7299V16.7299H8.06975V7.7299H11.0879V8.9999C11.362 8.527 11.7608 8.13742 12.2412 7.8731C12.7216 7.60878 13.2655 7.47975 13.8142 7.4999C15.8263 7.4999 17.285 8.7899 17.285 11.5599V16.7399Z" fill="white"/>
</svg>
